<svg xmlns="http://www.w3.org/2000/svg" viewBox="0 0 48 48" width="48px" height="48px"><path fill="#4285F4" d="M24 9.8c3.2 0 5.8 1.4 7.6 3.1l5.7-5.7C34.2 4.1 29.5 2 24 2 15.3 2 8.2 7.3 5 14.5l6.9 5.3C13.2 13.5 18.2 9.8 24 9.8z"/><path fill="#34A853" d="M24 46c5.5 0 10.2-1.9 13.6-5.2l-6.9-5.3c-1.9 1.3-4.3 2.1-6.7 2.1-5.7 0-10.6-3.8-12.3-9l-6.9 5.3C8.2 38.7 15.3 46 24 46z"/><path fill="#FBBC05" d="M3.7 29c-.3-.9-.5-1.9-.5-2.9s.2-2 .5-2.9l-6.9-5.3C-1.1 19.4-1.9 21.6-1.9 24s.8 4.6 2.7 6.3L3.7 29z"/><path fill="#EA4335" d="M24 28.2c3.1 0 5.7-1.1 7.6-2.9l6.9 5.3C34.2 43.9 29.5 46 24 46c-8.7 0-15.8-7.3-19-14.5l6.9-5.3c1.7 5.2 6.6 9 12.3 9z"/><path fill="none" d="M0 0h48v48H0z"/></svg>